<svg id="Layer_1" height="512" viewBox="0 0 128 128" width="512" xmlns="http://www.w3.org/2000/svg" data-name="Layer 1"><path d="m37.781 15.488h6.542v6.542h-6.542z" fill="#fd748c" transform="matrix(.707 -.707 .707 .707 -1.241 34.522)"/><path d="m100.96 105.971h6.542v6.542h-6.542z" fill="#fd748c" transform="matrix(.707 -.707 .707 .707 -46.717 105.698)"/><ellipse cx="64" cy="67.091" fill="#fc6928" rx="39.322" ry="16.365"/><path d="m110.684 44.187-8.661 39.269-1.638 7.444c0 3.821-16.292 6.91-36.385 6.91s-36.385-3.09-36.385-6.91l-1.637-7.446-8.662-39.267 30.206 18.538 16.478-26.097 16.478 26.1z" fill="#f9d12f"/><path d="m60.631 66.504h6.737v6.737h-6.737z" fill="#2ec3fc" transform="matrix(.707 -.707 .707 .707 -30.662 65.72)"/><path d="m102.023 83.456-1.638 7.444c0 3.821-16.292 6.91-36.385 6.91s-36.385-3.09-36.385-6.91l-1.637-7.446c7.043 2.639 21.431 4.431 38.022 4.431s30.978-1.792 38.023-4.429z" fill="#fd852b"/><circle cx="110.684" cy="44.553" fill="#fd852b" r="7.816"/><circle cx="64" cy="36.738" fill="#fc6928" r="7.816"/><circle cx="17.316" cy="44.553" fill="#fc6928" r="7.816"/><path d="m64 65.109v4.764h4.764z" fill="#1ba4fc"/><path d="m59.236 69.873h4.764v4.763z" fill="#1ba4fc"/><g fill="#2a1624"><path d="m89.84 25.1a2.413 2.413 0 1 0 -2.413-2.413 2.415 2.415 0 0 0 2.413 2.413z"/><path d="m89.84 29.279a2.413 2.413 0 1 0 2.412 2.413 2.415 2.415 0 0 0 -2.412-2.413z"/><path d="m85.337 29.6a2.413 2.413 0 1 0 -2.412-2.413 2.415 2.415 0 0 0 2.412 2.413z"/><path d="m94.342 29.6a2.413 2.413 0 1 0 -2.412-2.413 2.415 2.415 0 0 0 2.412 2.413z"/><path d="m22 103.106a2.413 2.413 0 1 0 -2.413-2.413 2.416 2.416 0 0 0 2.413 2.413z"/><path d="m22 107.285a2.413 2.413 0 1 0 2.413 2.413 2.416 2.416 0 0 0 -2.413-2.413z"/><path d="m17.5 102.783a2.413 2.413 0 1 0 2.41 2.417 2.416 2.416 0 0 0 -2.41-2.417z"/><path d="m26.5 102.783a2.413 2.413 0 1 0 2.413 2.413 2.416 2.416 0 0 0 -2.413-2.413z"/><path d="m39.814 24.587a1.749 1.749 0 0 0 2.475 0l4.626-4.625a1.75 1.75 0 0 0 0-2.475l-4.626-4.626a1.8 1.8 0 0 0 -2.475 0l-4.626 4.626a1.749 1.749 0 0 0 0 2.475zm1.237-8.014 2.149 2.152-2.151 2.151-2.149-2.151z"/><path d="m105.468 103.344a1.8 1.8 0 0 0 -2.475 0l-4.625 4.626a1.749 1.749 0 0 0 0 2.475l4.625 4.626a1.749 1.749 0 0 0 2.475 0l4.626-4.626a1.75 1.75 0 0 0 0-2.475zm-1.237 8.014-2.15-2.151 2.15-2.15 2.151 2.15z"/><path d="m64 76.352a1.744 1.744 0 0 0 1.237-.513l4.763-4.763a1.749 1.749 0 0 0 0-2.476l-4.764-4.764a1.749 1.749 0 0 0 -2.475 0l-4.761 4.764a1.749 1.749 0 0 0 0 2.475l4.764 4.764a1.744 1.744 0 0 0 1.236.513zm0-8.8 2.289 2.289-2.289 2.286-2.289-2.289z"/><path d="m93.976 87.266a1.754 1.754 0 0 0 .325-.031q.533-.1 1.047-.2a1.75 1.75 0 1 0 -.686-3.432c-.331.066-.666.131-1.008.2a1.75 1.75 0 0 0 .321 3.47z"/><path d="m110.684 34.953a9.542 9.542 0 0 0 -9.031 12.69l-20.618 12.657-4.4-6.963a71.441 71.441 0 0 1 7.643 1.507 1.75 1.75 0 1 0 .875-3.389 77.735 77.735 0 0 0 -10.935-1.955l-3.682-5.831a9.566 9.566 0 1 0 -13.073 0l-10.498 16.631-7.041-4.321a59.5 59.5 0 0 1 6.452-1.762 1.75 1.75 0 1 0 -.734-3.422 59 59 0 0 0 -9.518 2.851l-9.775-6a9.573 9.573 0 1 0 -1.731 3.044l21.99 13.5a1.75 1.75 0 0 0 2.4-.558l11.4-18.062a9.492 9.492 0 0 0 7.187 0l11.405 18.055a1.75 1.75 0 0 0 2.395.558l21.991-13.5a9.61 9.61 0 0 0 3.494 2.6l-8.2 37.2a1.722 1.722 0 0 0 -.039.291c-1.019 1.9-13.332 5.245-34.638 5.245s-33.618-3.342-34.637-5.245a1.735 1.735 0 0 0 -.039-.291l-.988-4.481c8.051 2.246 21.252 3.598 35.661 3.598a198.889 198.889 0 0 0 22.443-1.2 1.75 1.75 0 0 0 -.4-3.477 195.407 195.407 0 0 1 -22.043 1.177c-15.1 0-29.228-1.567-36.529-4.016l-5.1-23.142a1.75 1.75 0 1 0 -3.418.754l6.92 31.4c.192 2.826 4.042 4.858 12.074 6.382a146.82 146.82 0 0 0 26.053 2.05 146.824 146.824 0 0 0 26.054-2.053c8.031-1.524 11.882-3.557 12.074-6.382l8.162-37.027c.131.005.26.02.393.02a9.566 9.566 0 1 0 0-19.132zm-93.368 15.632a6.07 6.07 0 1 1 5.327-3.167 6.071 6.071 0 0 1 -5.327 3.167zm40.618-13.885a6.066 6.066 0 1 1 6.066 6.07 6.073 6.073 0 0 1 -6.066-6.07zm52.749 13.882a6.066 6.066 0 1 1 6.066-6.066 6.072 6.072 0 0 1 -6.065 6.069z"/></g></svg>