<svg id="Capa_1" enable-background="new 0 0 529.965 529.965" height="512" viewBox="0 0 529.965 529.965" width="512" xmlns="http://www.w3.org/2000/svg"><g><g><g><circle cx="264.982" cy="264.982" fill="#2d3c6b" r="264.982"/></g><g><g><path d="m264.982 62.4c99.761 0 180.633 80.872 180.633 180.632v78.14h-361.265v-78.14c0-99.76 80.872-180.632 180.632-180.632z" fill="#e80054"/></g><g><path d="m264.982 62.4c52.501 0 95.06 42.56 95.06 95.059v163.713h-190.12v-163.712c.001-52.5 42.561-95.06 95.06-95.06z" fill="#ff4155"/></g><g><path d="m446.901 235.371-15.251 24.565c-10.302 16.594-34.259 17.126-45.288 1.006-9.813-14.341-15.064-31.313-15.064-48.691 0-2.306 1.526-4.334 3.742-4.974l15.68-4.52c4.989-1.439 4.989-8.507 0-9.946l-16.674-4.807c-1.71-.493-3.046-1.829-3.539-3.539l-4.807-16.674c-1.439-4.989-8.507-4.989-9.946 0l-4.807 16.674c-.493 1.71-1.829 3.046-3.539 3.539l-16.674 4.807c-4.989 1.439-4.989 8.507 0 9.946l15.68 4.52c2.216.639 3.742 2.666 3.742 4.973v.002c0 16.164-4.518 32.006-13.043 45.738-11.168 17.989-37.344 17.989-48.513 0-8.526-13.732-13.043-29.576-13.043-45.739v-1.739c0-13.347 6.156-25.787 16.306-34.455 8.889-7.592 14.526-18.882 14.526-31.49 0-12.607-5.636-23.897-14.526-31.489-10.15-8.669-16.306-21.108-16.306-34.455v-.187c0-2.306 1.526-4.334 3.742-4.973l15.68-4.52c4.989-1.439 4.989-8.507 0-9.946l-16.674-4.808c-1.71-.493-3.046-1.83-3.539-3.539l-4.807-16.674c-1.439-4.989-8.507-4.989-9.946 0l-4.807 16.674c-.493 1.71-1.829 3.046-3.539 3.539l-16.674 4.808c-4.989 1.439-4.989 8.507 0 9.946l15.68 4.52c2.216.639 3.742 2.666 3.742 4.973v.187c0 13.347-6.156 25.787-16.306 34.455-8.891 7.592-14.527 18.882-14.527 31.49 0 12.607 5.636 23.897 14.526 31.49 10.15 8.669 16.306 21.108 16.306 34.455v1.738c0 15.429-4.125 30.579-11.948 43.877l-.451.768c-10.89 18.514-37.452 19.107-49.157 1.097l-.002-.002c-8.526-13.732-13.044-29.576-13.044-45.739 0-2.306 1.526-4.334 3.742-4.973l15.68-4.52c4.989-1.439 4.989-8.507 0-9.946l-16.674-4.807c-1.71-.493-3.046-1.829-3.539-3.539l-4.807-16.674c-1.439-4.989-8.507-4.989-9.946 0l-4.807 16.675c-.493 1.71-1.829 3.046-3.539 3.539l-16.674 4.807c-4.989 1.439-4.989 8.507 0 9.946l15.68 4.52c2.216.639 3.742 2.666 3.742 4.973v.002c0 16.164-4.518 32.006-13.043 45.738-9.462 18.922-36.007 20.144-47.166 2.17l-15.391-24.79c-2.747-4.425-9.572-2.478-9.572 2.73v142.09 30.738h382.982v-30.74-142.091c-.006-5.207-6.832-7.154-9.579-2.729z" fill="#ffdd40"/></g><g><path d="m219.956 329.675c0-30.535-15.009-50.202-27.105-71.685-8.526-13.733-13.044-29.576-13.044-45.74 0-2.306 1.526-4.334 3.742-4.973l15.68-4.52c4.989-1.439 4.989-8.507 0-9.946l-16.674-4.807c-1.71-.493-3.046-1.829-3.539-3.539l-4.807-16.674c-1.439-4.989-8.507-4.989-9.946 0l-4.807 16.674c-.493 1.71-1.829 3.046-3.539 3.539l-16.674 4.807c-4.989 1.439-4.989 8.507 0 9.946l15.679 4.52c2.216.639 3.742 2.666 3.742 4.973v.002c0 16.164-4.518 32.006-13.043 45.738-9.462 18.922-36.007 20.144-47.166 2.17l-15.391-24.79c-2.747-4.425-9.572-2.478-9.572 2.73v142.09 30.74h146.465c-.001-30.568-.001-65.646-.001-81.255z" fill="#ffc839"/></g><g><g><path d="m482.09 334.708-20.584 41.169c-2.073 4.148-7.992 4.148-10.065 0l-20.584-41.169c-1.584-3.168-1.584-6.897 0-10.065l20.584-41.169c2.073-4.148 7.992-4.148 10.065 0l20.584 41.169c1.585 3.168 1.585 6.897 0 10.065z" fill="#ff4155"/></g><g><path d="m456.474 280.365c-1.998 0-3.995 1.037-5.033 3.11l-20.584 41.168c-.792 1.584-1.188 3.308-1.188 5.033 14.804 0 26.805-12.001 26.805-26.805z" fill="#e80054"/></g><g><path d="m461.506 375.877 20.584-41.169c.792-1.584 1.188-3.308 1.188-5.033-14.804 0-26.805 12.001-26.805 26.805v22.506c1.998 0 3.996-1.036 5.033-3.109z" fill="#e80054"/></g></g><g><g><path d="m99.108 334.708-20.584 41.169c-2.073 4.148-7.992 4.148-10.065 0l-20.584-41.169c-1.584-3.168-1.584-6.897 0-10.065l20.584-41.169c2.073-4.148 7.992-4.148 10.065 0l20.584 41.169c1.584 3.168 1.584 6.897 0 10.065z" fill="#ff4155"/></g><g><path d="m73.491 280.365c-1.998 0-3.995 1.037-5.033 3.11l-20.584 41.168c-.792 1.584-1.188 3.308-1.188 5.033 14.804 0 26.805-12.001 26.805-26.805z" fill="#e80054"/></g><g><path d="m78.524 375.877 20.584-41.169c.792-1.584 1.188-3.308 1.188-5.033-14.804 0-26.805 12.001-26.805 26.805v22.506c1.998 0 3.996-1.036 5.033-3.109z" fill="#e80054"/></g></g><g><g><path d="m290.599 334.708-20.584 41.169c-2.073 4.148-7.992 4.148-10.065 0l-20.584-41.169c-1.584-3.168-1.584-6.897 0-10.065l20.584-41.169c2.073-4.148 7.992-4.148 10.065 0l20.584 41.169c1.585 3.168 1.585 6.897 0 10.065z" fill="#ff4155"/></g><g><path d="m264.982 280.365c-1.998 0-3.995 1.037-5.033 3.11l-20.584 41.168c-.792 1.584-1.188 3.308-1.188 5.033 14.804 0 26.805-12.001 26.805-26.805z" fill="#e80054"/></g><g><path d="m270.015 375.877 20.584-41.169c.792-1.584 1.188-3.308 1.188-5.033-14.804 0-26.805 12.001-26.805 26.805v22.506c1.998 0 3.996-1.036 5.033-3.109z" fill="#e80054"/></g></g><g><g><path d="m194.853 334.708-20.584 41.169c-2.073 4.148-7.992 4.148-10.065 0l-20.584-41.169c-1.584-3.168-1.584-6.897 0-10.065l20.584-41.169c2.073-4.148 7.992-4.148 10.065 0l20.584 41.169c1.585 3.168 1.585 6.897 0 10.065z" fill="#ff4155"/></g><g><path d="m169.237 280.365c-1.998 0-3.995 1.037-5.033 3.11l-20.584 41.168c-.792 1.584-1.188 3.308-1.188 5.033 14.804 0 26.805-12.001 26.805-26.805z" fill="#e80054"/></g><g><path d="m174.269 375.877 20.584-41.169c.792-1.584 1.188-3.308 1.188-5.033-14.804 0-26.805 12.001-26.805 26.805v22.506c1.999 0 3.996-1.036 5.033-3.109z" fill="#e80054"/></g></g><g><g><path d="m386.344 334.708-20.584 41.169c-2.073 4.148-7.992 4.148-10.065 0l-20.584-41.169c-1.584-3.168-1.584-6.897 0-10.065l20.584-41.169c2.073-4.148 7.992-4.148 10.065 0l20.584 41.169c1.585 3.168 1.585 6.897 0 10.065z" fill="#ff4155"/></g><g><path d="m360.728 280.365c-1.998 0-3.995 1.037-5.033 3.11l-20.584 41.168c-.792 1.584-1.188 3.308-1.188 5.033 14.804 0 26.805-12.001 26.805-26.805z" fill="#e80054"/></g><g><path d="m365.761 375.877 20.584-41.169c.792-1.584 1.188-3.308 1.188-5.033-14.804 0-26.805 12.001-26.805 26.805v22.506c1.998 0 3.995-1.036 5.033-3.109z" fill="#e80054"/></g></g><g><path d="m104.544 410.93h320.877v103.509h-320.877z" fill="#ffdd40"/></g><g><path d="m184.763 426.456v-15.526h-80.219v103.509h80.219v-15.526c-4.287 0-7.763-3.476-7.763-7.763s3.476-7.763 7.763-7.763v-41.404c-4.287 0-7.763-3.476-7.763-7.763s3.476-7.764 7.763-7.764z" fill="#ffc839"/></g><g><path d="m456.474 426.456h-382.983c-8.575 0-15.526-6.952-15.526-15.526 0-8.575 6.952-15.526 15.526-15.526h382.982c8.575 0 15.526 6.952 15.526 15.526.001 8.574-6.951 15.526-15.525 15.526z" fill="#fcea9d"/></g><g><path d="m125.246 410.93c0-8.575 6.952-15.526 15.526-15.526h-67.281c-8.575 0-15.526 6.952-15.526 15.526 0 8.575 6.952 15.526 15.526 15.526h67.281c-8.575 0-15.526-6.952-15.526-15.526z" fill="#ffdd40"/></g><g><path d="m456.474 529.965h-382.983c-8.575 0-15.526-6.952-15.526-15.526 0-8.575 6.952-15.526 15.526-15.526h382.982c8.575 0 15.526 6.952 15.526 15.526.001 8.574-6.951 15.526-15.525 15.526z" fill="#fcea9d"/></g><g><path d="m125.246 514.439c0-8.575 6.952-15.526 15.526-15.526h-67.281c-8.575 0-15.526 6.952-15.526 15.526 0 8.575 6.952 15.526 15.526 15.526h67.281c-8.575 0-15.526-6.952-15.526-15.526z" fill="#ffdd40"/></g><g><circle cx="104.544" cy="462.684" fill="#ffb332" r="20.702"/></g><g><path d="m104.544 462.684c0-7.658 4.169-14.329 10.351-17.909-3.047-1.766-6.576-2.793-10.351-2.793-11.434 0-20.702 9.268-20.702 20.702s9.268 20.702 20.702 20.702c3.775 0 7.304-1.027 10.351-2.793-6.182-3.58-10.351-10.251-10.351-17.909z" fill="#ff9100"/></g><g><circle cx="184.763" cy="462.684" fill="#ffc839" r="20.702"/></g><g><circle cx="264.982" cy="462.684" fill="#ffc839" r="20.702"/></g><g><circle cx="345.202" cy="462.684" fill="#ffc839" r="20.702"/></g><g><circle cx="425.421" cy="462.684" fill="#ffc839" r="20.702"/></g><g><path d="m184.763 462.684c0-7.658 4.169-14.329 10.351-17.909-3.047-1.766-6.576-2.793-10.351-2.793-11.434 0-20.702 9.268-20.702 20.702s9.268 20.702 20.702 20.702c3.775 0 7.304-1.027 10.351-2.793-6.182-3.58-10.351-10.251-10.351-17.909z" fill="#ffb332"/></g><g><path d="m264.982 462.684c0-7.658 4.169-14.329 10.351-17.909-3.047-1.766-6.576-2.793-10.351-2.793-11.434 0-20.702 9.268-20.702 20.702s9.268 20.702 20.702 20.702c3.775 0 7.304-1.027 10.351-2.793-6.181-3.58-10.351-10.251-10.351-17.909z" fill="#ffb332"/></g><g><path d="m345.202 462.684c0-7.658 4.169-14.329 10.351-17.909-3.047-1.766-6.576-2.793-10.351-2.793-11.434 0-20.702 9.268-20.702 20.702s9.268 20.702 20.702 20.702c3.775 0 7.304-1.027 10.351-2.793-6.182-3.58-10.351-10.251-10.351-17.909z" fill="#ffb332"/></g><g><g><circle cx="264.982" cy="144.568" fill="#9281f7" r="20.702"/></g><g><path d="m264.982 144.568c0-7.658 4.169-14.329 10.351-17.909-3.047-1.766-6.576-2.793-10.351-2.793-11.434 0-20.702 9.268-20.702 20.702s9.268 20.702 20.702 20.702c3.775 0 7.304-1.027 10.351-2.793-6.181-3.581-10.351-10.252-10.351-17.909z" fill="#836ce5"/></g></g><g><path d="m425.421 462.684c0-7.658 4.169-14.329 10.351-17.909-3.047-1.766-6.576-2.793-10.351-2.793-11.434 0-20.702 9.268-20.702 20.702s9.268 20.702 20.702 20.702c3.775 0 7.304-1.027 10.351-2.793-6.182-3.58-10.351-10.251-10.351-17.909z" fill="#ffb332"/></g></g></g></g></svg>