<svg id="Capa_1" enable-background="new 0 0 512 512" height="512" viewBox="0 0 512 512" width="512" xmlns="http://www.w3.org/2000/svg"><g><g><circle cx="127.637" cy="464.582" fill="#5c90ae" r="37.418"/></g><g><circle cx="420.834" cy="464.582" fill="#5c90ae" r="37.418"/></g><g><path d="m501.768 322.106v142.476h-43.519c0-20.67-16.754-37.415-37.415-37.415-20.67 0-37.415 16.744-37.415 37.415h-218.364c0-20.67-16.754-37.415-37.415-37.415-20.67 0-37.425 16.744-37.425 37.415h-41.3v-84.87h124.033c-.02.5-.03 1.009-.03 1.509 0 24.087 19.532 43.619 43.619 43.619s43.619-19.532 43.619-43.619c0-.5-.01-1.009-.03-1.509h35.457l44.318-57.606z" fill="#d98964"/></g><g><path d="m287.131 379.715v-248.67h52.771v191.057l-44.319 57.61z" fill="#eab7a2"/></g><g><path d="m411.712 188.246-38.483-57.201h-33.328v40.683l104.503 150.374h57.363l-41.081-61.063z" fill="#eab7a2"/></g><g><circle cx="216.538" cy="381.22" fill="#ff5c7f" r="43.615"/></g><g><path d="m238.356 10v333.446c-6.414-3.716-13.867-5.845-21.82-5.845-7.902 0-15.305 2.098-21.69 5.775v-208.603c0-11.769-4.796-23.188-13.697-30.891-9.561-8.272-16.095-24.946-16.095-44.168 0-27.454 13.338-49.713 29.792-49.713h43.51z" fill="#9ebccf"/></g><g><path d="m48.915 464.582-38.683-16.059v-50.368l38.682-18.44z" fill="#d98964"/></g><g><path d="m511.751 321.771c-.062-1.855-.645-3.709-1.687-5.25l-41.081-61.063c-3.083-4.583-9.296-5.798-13.879-2.715-4.582 3.083-5.798 9.297-2.715 13.879l30.598 45.481h-33.354l-99.73-143.509v-27.549h18.003l35.511 52.783c3.083 4.583 9.296 5.798 13.879 2.715 4.582-3.083 5.798-9.297 2.715-13.879l-38.482-57.201c-1.857-2.762-4.968-4.418-8.297-4.418h-86.099c-5.522 0-10 4.478-10 10v238.667h-8.235c-2.827-12.872-10.284-24.025-20.54-31.613v-41.196h.408c5.523 0 10-4.478 10-10s-4.477-10-10-10h-.408v-40.329h.408c5.523 0 10-4.478 10-10s-4.477-10-10-10h-.408v-58.157h.408c5.523 0 10-4.478 10-10s-4.478-10-10-10h-.408v-128.417c0-5.522-4.477-10-10-10h-43.509c-22.313 0-39.792 26.229-39.792 59.713 0 21.475 7.492 41.297 19.552 51.731 6.508 5.631 10.24 14.134 10.24 23.328v10.21l-125.935 161.728v-1.945c0-5.522-4.477-10-10-10s-10 4.478-10 10v68.639l-32.985 15.725c-3.48 1.659-5.697 5.171-5.697 9.026v50.367c0 4.042 2.433 7.686 6.166 9.235l38.582 16.018c1.232.529 2.595.807 3.935.807h32.374c4.605 21.359 23.632 37.418 46.348 37.418s41.743-16.059 46.348-37.418h200.502c4.604 21.359 23.631 37.418 46.347 37.418s41.743-16.059 46.347-37.418h34.586c5.522 0 10-4.478 10-10v-142.476c.001-.113-.012-.223-.016-.335zm-86.472-9.665h-75.377v-108.465zm-95.377-171.061v177.656l-31.696 41.2-1.075 1.397v-220.253zm-129.536 210.716c5.046-2.783 10.803-4.216 16.562-4.146 18.123.207 33.225 15.453 33.225 33.606 0 18.535-15.08 33.615-33.616 33.615s-33.616-15.08-33.616-33.615c.001-12.677 7.057-23.735 17.445-29.46zm27.991-22.843c-7.689-1.732-15.816-1.745-23.509-.029v-31.985h23.509zm0-52.015h-23.509v-40.329h23.509zm0-60.329h-23.509v-58.157h23.509zm-53.302-156.861c0-22.729 10.449-39.713 19.792-39.713h33.509v118.417h-23.509v-3.645c0-15.005-6.252-29.021-17.154-38.453-7.677-6.642-12.638-21.01-12.638-36.606zm9.792 117.823v39.039h-1.477c-5.523 0-10 4.478-10 10s4.477 10 10 10h1.477v40.329h-1.477c-5.523 0-10 4.478-10 10s4.477 10 10 10h1.477v41.104c-10.321 7.589-17.829 18.78-20.668 31.704h-105.265v-30.449zm-164.615 226.93 18.682-8.905.001 54.042-18.683-7.756zm107.405 87.534c-15.119 0-27.418-12.3-27.418-27.418 0-.011-.002-.021-.002-.032.018-15.101 12.313-27.383 27.424-27.383 15.116 0 27.415 12.299 27.415 27.415-.001 15.118-12.3 27.418-27.419 27.418zm293.197 0c-15.101 0-27.389-12.272-27.417-27.366 0-.017.003-.034.003-.052 0-15.116 12.298-27.415 27.414-27.415s27.415 12.299 27.415 27.415c0 .013.002.026.002.039-.021 15.1-12.312 27.379-27.417 27.379zm70.934-37.418h-24.579c-4.604-21.359-23.639-37.415-46.354-37.415s-41.75 16.056-46.354 37.415h-200.487c-4.603-21.359-23.638-37.415-46.354-37.415-22.72 0-41.76 16.056-46.364 37.415h-22.361v-64.87h104.675c4.097 25.64 27.001 45.127 52.947 45.127 25.963 0 48.852-19.492 52.947-45.127h26.103c3.066 0 6.053-1.472 7.922-3.902l41.316-53.703h146.943z"/><path d="m428.98 234.89c4.594 3.065 11.02 1.707 13.978-2.951 2.863-4.51 1.602-10.7-2.867-13.679-4.514-3.008-10.863-1.77-13.87 2.76-2.99 4.503-1.801 10.89 2.759 13.87z"/><path d="m207.3 385.04c2.067 5.038 8.042 7.493 13.06 5.41 5.035-2.09 7.492-8.011 5.41-13.051-2.078-5.031-8.03-7.503-13.06-5.409-5.02 2.09-7.506 8.014-5.41 13.05z"/></g></g></svg>