<svg height="25" viewBox="0 0 512 512" width="25" xmlns="http://www.w3.org/2000/svg"><path d="m512 256c0 141.386719-114.613281 256-256 256s-256-114.613281-256-256 114.613281-256 256-256 256 114.613281 256 256zm0 0" fill="#65b2ff"/><path d="m512 256c0 141.378906-114.621094 256-256 256s-256-114.621094-256-256c0-46.21875 12.25-89.570312 33.679688-127 44.121093 77.070312 127.160156 129 222.320312 129s178.210938-51.929688 222.320312-129c21.429688 37.429688 33.679688 80.78125 33.679688 127zm0 0" fill="#0f9be8"/><path d="m481.261719 377.699219v.011719c-43.292969 79.96875-127.941407 134.289062-225.261719 134.289062s-181.96875-54.320312-225.261719-134.289062v-.011719zm0 0" fill="#1076e5"/><path d="m486.089844 368.339844c-15.878906 32.46875-38.429688 61.082031-65.871094 84.039062h-284.160156c-16.597656 0-30.058594-13.457031-30.058594-30.050781v-268.898437h101.191406c34.519532.210937 67.796875 7.640624 98.089844 21.109374 14.128906 6.269532 27.597656 13.859376 40.25 22.640626 40.160156 27.859374 72.007812 67.710937 89.917969 115.628906 9.300781 24.882812 27.730469 44.472656 50.640625 55.53125zm0 0" fill="#ff3445"/><path d="m486.089844 368.339844c-15.878906 32.46875-38.429688 61.082031-65.871094 84.039062h-213.027344v-298.949218c34.519532.210937 67.796875 7.640624 98.089844 21.109374 14.128906 6.269532 27.597656 13.859376 40.25 22.640626 40.160156 27.859374 72.007812 67.710937 89.917969 115.628906 9.300781 24.882812 27.730469 44.472656 50.640625 55.53125zm0 0" fill="#dd1265"/><path d="m486.089844 368.339844c-15.878906 32.46875-38.429688 61.082031-65.871094 84.039062h-114.9375v-277.839844c14.128906 6.269532 27.597656 13.859376 40.25 22.640626 40.160156 27.859374 72.007812 67.710937 89.917969 115.628906 9.300781 24.882812 27.730469 44.472656 50.640625 55.53125zm0 0" fill="#ba0d5c"/><path d="m413.011719 438.25h-70.089844l19.457031 19.46875 20.601563 20.601562c-9.78125 5.609376-19.96875 10.578126-30.5 14.859376l-13.199219-13.199219-19.050781-19.039063v42.929688c-4.929688 1.277344-9.910157 2.410156-14.949219 3.390625-5.652344 1.109375-11.359375 2.007812-17.132812 2.738281v-49.058594l-18.226563 18.230469-31.332031 31.328125-22.679688-22.679688 31.429688-31.441406 18.128906-18.128906h-70.089844v-32.078125h70.089844l-49.558594-49.5625 22.679688-22.679687 49.558594 49.558593v-70.097656h32.082031v70.097656l19.859375-19.859375 29.710937-29.699218 22.679688 22.679687-49.558594 49.5625h70.089844zm0 0" fill="#ed771b"/><path d="m413.011719 438.25h-70.089844l19.457031 19.46875 20.601563 20.601562c-9.78125 5.609376-19.96875 10.578126-30.5 14.859376l-13.199219-13.199219-19.050781-19.039063v42.929688c-4.929688 1.277344-9.910157 2.410156-14.949219 3.390625v-193.871094h14.949219v70.097656l19.859375-19.859375 29.710937-29.699218 22.679688 22.679687-49.558594 49.5625h70.089844zm0 0" fill="#c55835"/><path d="m370.78125 438.253906h-27.859375l19.460937 19.460938c-5.796874 9.144531-13.730468 16.800781-23.105468 22.269531l-19.042969-19.046875v26.546875c-4.8125 1.089844-9.816406 1.664063-14.957031 1.664063-5.917969 0-11.65625-.761719-17.125-2.191407v-26.019531l-18.230469 18.234375c-9.230469-5.675781-16.988281-13.503906-22.578125-22.789063l18.125-18.128906h-25.699219c-1.355469-5.339844-2.078125-10.929687-2.078125-16.691406 0-5.292969.609375-10.445312 1.761719-15.390625h26.015625l-18.609375-18.609375c5.464844-9.367188 13.117187-17.304688 22.261719-23.105469l19.03125 19.03125v-27.316406c5.46875-1.429687 11.207031-2.191406 17.125-2.191406 5.140625 0 10.144531.574219 14.957031 1.664062v27.84375l19.859375-19.859375c9.285156 5.589844 17.113281 13.351563 22.789062 22.582032l-19.960937 19.960937h28.175781c1.152344 4.945313 1.761719 10.097656 1.761719 15.390625 0 5.761719-.722656 11.351562-2.078125 16.691406zm0 0" fill="#ff9f00"/><path d="m370.78125 438.253906h-27.859375l19.460937 19.460938c-5.796874 9.144531-13.730468 16.800781-23.105468 22.269531l-19.042969-19.046875v26.546875c-4.8125 1.089844-9.816406 1.664063-14.957031 1.664063v-135.167969c5.140625 0 10.144531.570312 14.957031 1.660156v27.84375l19.859375-19.855469c9.285156 5.589844 17.113281 13.351563 22.789062 22.582032l-19.960937 19.960937h28.175781c1.152344 4.941406 1.761719 10.097656 1.761719 15.390625 0 5.761719-.722656 11.351562-2.078125 16.691406zm0 0" fill="#ed771b"/><path d="m336.761719 421.5625c0 17.394531-14.101563 31.476562-31.476563 31.476562-17.394531 0-31.496094-14.082031-31.496094-31.476562 0-17.390625 14.101563-31.476562 31.496094-31.476562 17.375 0 31.476563 14.085937 31.476563 31.476562zm0 0" fill="#c55835"/><path d="m336.761719 421.5625c0 17.394531-14.101563 31.476562-31.476563 31.476562v-62.953124c17.375 0 31.476563 14.085937 31.476563 31.476562zm0 0" fill="#a63914"/><path d="m305.28125 309.070312h-1.089844c-62.453125 0-113.082031 50.628907-113.082031 113.078126 0 36.101562 16.921875 68.25 43.261719 88.953124h.007812c7.132813.597657 14.339844.898438 21.621094.898438 16.859375 0 33.328125-1.628906 49.28125-4.738281 39.089844-7.621094 75-24.152344 105.527344-47.371094h.011718c4.179688-11.800781 6.449219-24.5 6.449219-37.742187 0-62.089844-50.039062-112.5-111.988281-113.078126zm0 193.03125h-1.089844c-44.160156 0-79.953125-35.792968-79.953125-79.953124 0-44.160157 35.792969-79.957032 79.953125-79.957032h1.089844c43.660156.578125 78.867188 36.160156 78.867188 79.957032 0 43.792968-35.207032 79.371093-78.867188 79.953124zm0 0" fill="#ffd112"/><path d="m417.269531 422.148438c0 13.242187-2.269531 25.941406-6.449219 37.742187-30.53125 23.21875-66.449218 39.75-105.539062 47.371094v-5.160157c43.660156-.582031 78.867188-36.160156 78.867188-79.953124 0-43.796876-35.207032-79.378907-78.867188-79.957032v-33.121094c61.949219.578126 111.988281 50.988282 111.988281 113.078126zm0 0" fill="#ff9f00"/><path d="m305.277344 502.097656c-.363282.003906-.726563.007813-1.085938.007813-44.160156 0-79.953125-35.800781-79.953125-79.957031 0-44.164063 35.792969-79.960938 79.953125-79.960938.359375 0 .722656.003906 1.085938.003906 43.664062.582032 78.875 36.152344 78.875 79.953125s-35.210938 79.371094-78.875 79.953125zm.003906-176.957031h-1.089844c-53.570312 0-97 43.429687-97 97.007813 0 40.402343 24.699219 75.03125 59.820313 89.613281 13.027343-.542969 25.808593-2.070313 38.269531-4.5 27.96875-5.453125 54.308594-15.472657 78.21875-29.230469 11.148438-15.800781 17.699219-35.070312 17.699219-55.882812 0-53.21875-42.847657-96.429688-95.917969-97.007813zm0 0" fill="#ff9f00"/><path d="m401.199219 422.148438c0 20.8125-6.550781 40.082031-17.699219 55.882812-23.910156 13.757812-50.25 23.777344-78.21875 29.230469v-5.160157c43.660156-.582031 78.867188-36.160156 78.867188-79.953124 0-43.796876-35.207032-79.378907-78.867188-79.957032v-17.050781c53.070312.578125 95.917969 43.789063 95.917969 97.007813zm0 0" fill="#ed771b"/><path d="m322.765625 421.5625c0 9.660156-7.832031 17.488281-17.488281 17.488281-9.660156 0-17.488282-7.828125-17.488282-17.488281 0-9.65625 7.828126-17.488281 17.488282-17.488281 9.65625 0 17.488281 7.832031 17.488281 17.488281zm0 0" fill="#ed771b"/><path d="m322.765625 421.5625c0 9.664062-7.832031 17.488281-17.488281 17.488281v-34.976562c9.65625 0 17.488281 7.828125 17.488281 17.488281zm0 0" fill="#c55835"/><path d="m311.722656 421.5625c0 3.5625-2.886718 6.449219-6.445312 6.449219-3.5625 0-6.449219-2.886719-6.449219-6.449219 0-3.558594 2.886719-6.445312 6.449219-6.445312 3.558594 0 6.445312 2.886718 6.445312 6.445312zm0 0" fill="#c55835"/><path d="m311.722656 421.5625c0 3.5625-2.886718 6.445312-6.445312 6.445312v-12.890624c3.558594 0 6.445312 2.886718 6.445312 6.445312zm0 0" fill="#a63914"/><path d="m435.449219 312.808594c-17.910157-47.917969-49.757813-87.769532-89.917969-115.628906-12.652344-8.78125-26.121094-16.371094-40.25-22.648438-30.710938-13.652344-64.5-21.101562-99.542969-21.101562h-99.738281v32.808593h99.738281c21.820313 0 43.390625 3.332031 64.113281 9.890625 12.257813 3.890625 24.109376 8.859375 35.429688 14.871094 7.417969 3.941406 14.617188 8.320312 21.546875 13.128906 17.523437 12.160156 33.050781 26.820313 46.171875 43.570313 13.398438 17.121093 24.078125 36.160156 31.710938 56.601562 4.800781 12.847657 11.519531 24.828125 19.960937 35.609375 8.25 10.539063 18.027344 19.761719 29.046875 27.410156 5.132812 3.558594 10.5 6.75 16.0625 9.550782 3.140625-4.761719 6.128906-9.632813 8.949219-14.601563 2.597656-4.558593 5.050781-9.199219 7.359375-13.929687-22.910156-11.058594-41.339844-30.648438-50.640625-55.53125zm0 0" fill="#ffd112"/><path d="m486.089844 368.339844c-2.308594 4.730468-4.761719 9.371094-7.359375 13.929687-2.820313 4.96875-5.808594 9.839844-8.949219 14.601563-5.5625-2.800782-10.929688-5.992188-16.0625-9.550782-11.019531-7.648437-20.796875-16.871093-29.046875-27.410156-8.441406-10.78125-15.160156-22.761718-19.960937-35.609375-7.632813-20.441406-18.3125-39.480469-31.710938-56.601562-13.121094-16.75-28.648438-31.410157-46.171875-43.570313-6.929687-4.808594-14.128906-9.1875-21.546875-13.128906v-36.46875c14.128906 6.277344 27.597656 13.867188 40.25 22.648438 40.160156 27.859374 72.007812 67.710937 89.917969 115.628906 9.300781 24.882812 27.730469 44.472656 50.640625 55.53125zm0 0" fill="#ff9f00"/><path d="m424.5 326.449219c-19.921875-47.128907-45.601562-90.570313-78.96875-112.257813-12.792969-8.320312-26.242188-15.710937-40.25-21.941406-30.832031-13.710938-64.359375-21.808594-99.542969-21.808594h-99.738281v15.796875h99.738281c21.820313 0 43.390625 3.332031 64.113281 9.890625 12.257813 3.890625 24.109376 8.859375 35.429688 14.871094 7.417969 3.941406 14.617188 8.320312 21.546875 13.128906 17.523437 12.160156 33.050781 26.820313 46.171875 43.570313 13.398438 17.121093 24.078125 36.160156 31.710938 56.601562 4.800781 12.847657 11.519531 24.828125 19.960937 35.609375 8.25 10.539063 18.027344 19.761719 29.046875 27.410156 5.132812 3.558594 10.5 6.75 16.0625 9.550782 3.140625-4.761719 6.128906-9.632813 8.949219-14.601563-23.742188-12.191406-44.171875-32.007812-54.230469-55.820312zm0 0" fill="#ff9f00"/><path d="m478.730469 382.269531c-2.820313 4.96875-5.808594 9.839844-8.949219 14.601563-5.5625-2.800782-10.929688-5.992188-16.0625-9.550782-11.019531-7.648437-20.796875-16.871093-29.046875-27.410156-8.441406-10.78125-15.160156-22.761718-19.960937-35.609375-7.632813-20.441406-18.3125-39.480469-31.710938-56.601562-13.121094-16.75-28.648438-31.410157-46.171875-43.570313-6.929687-4.808594-14.128906-9.1875-21.546875-13.128906v-18.75c14.007812 6.230469 27.457031 13.621094 40.25 21.941406 33.367188 21.6875 59.046875 65.128906 78.96875 112.257813 10.058594 23.8125 30.488281 43.628906 54.230469 55.820312zm0 0" fill="#ed771b"/><path d="m176.167969 377.128906c0 6.574219-2.664063 12.527344-6.972657 16.835938-4.308593 4.308594-10.265624 6.972656-16.839843 6.972656h-46.351563v-47.617188h46.351563c13.148437 0 23.8125 10.660157 23.8125 23.808594zm0 0" fill="#ffd112"/></svg>