<svg height="25" viewBox="0 0 58 55" width="25" xmlns="http://www.w3.org/2000/svg"><g id="033---Chariot" fill="none" transform="translate(0 -1)"><path id="Shape" d="m51 37.053h6c.5522847 0 1 .4477153 1 1v2c0 .5522847-.4477153 1-1 1h-5.11z" fill="#f0c419"/><path id="Shape" d="m58 25.05c0 8.14-4.64 14.29-6.36 16.3-.3830863.4401825-.9364838.6950366-1.52.7h-49.12s-2-10.33 0-17c1.55-5.16 4-10 3-15-.61-3.04-1.22-5.35-.92-7.81.086181-.66579428.62450062-1.18165244 1.29336151-1.23939583.66886089-.05774338 1.28762576.35822259 1.48663849.99939583 1.56 5.02 5.92 12.05 18.14 12.05 16.84 0 25.04-4.71 28.08-7.17.2366908-.19173746.5484703-.26384069.8453101-.19548942s.5456887.26954657.6746899.54548942c1.33 2.75 4.4 9.98 4.4 17.82z" fill="#e64c3c"/><path id="Shape" d="m58 25.05c-.1581771 6.0079759-2.4074181 11.7725403-6.36 16.3-.3830863.4401825-.9364838.6950366-1.52.7h-2c.5835162-.0049634 1.1369137-.2598175 1.52-.7 2.9970582-3.5196796 5.0542992-7.740808 5.98-12.27 1.3-6.88-1.02-15.636-4.01-21.83.469-.359.61-.48.62-.48.3085004-.16608196.682236-.15464107.98.03l.01.01c.1670019.09739647.2997478.24411568.38.42.121.271.837 1.735 1.185 2.69 1.9869349 4.8045879 3.0765981 9.9326141 3.215 15.13z" fill="#c03a2b"/><path id="Shape" d="m53.2 10.97c-7.5 4.72-16.71 7.08-29.2 7.08-7.3 0-16.8-1.96-20.87-12.67l-.01-.01c-.14319763-1.03762878-.15663433-2.08905069-.04-3.13.086181-.66579428.62450062-1.18165244 1.29336151-1.23939583.66886089-.05774338 1.28762576.35822259 1.48663849.99939583 1.56 5.02 5.92 12.05 18.14 12.05 20.452 0 27.73-7.074 28.22-7.27-.2136496.14280097-.4174437.29982263-.61.47.41.85.99 2.13 1.59 3.72z" fill="#f0c419"/><path id="Shape" d="m54.785 9.92v.01c-.52.36-1.05.71-1.58 1.04-.6-1.59-1.18-2.87-1.59-3.72.17-.13.33-.25.47-.37.3184797-.2713079.7764732-.30373222 1.13-.08l.01.01c.0806069.04214023.1519995.09993421.21.17.5099868.95132762.9608419 1.93318981 1.35 2.94z" fill="#f29c1f"/><path id="Shape" d="m55.62 29.08c-2.9336011 1.4522294-6.0283369 2.5531766-9.22 3.28-.7774665.1837646-1.5897138-.1127706-2.0659103-.7542225s-.5249844-1.5047587-.1240897-2.1957775c-.91.22-1.847.438-2.84.61-1.0880009.2043453-2.1356546-.5119991-2.3399999-1.6-.2043454-1.0880009.511999-2.1356546 1.5999999-2.34.24-.04.46-.09.69-.13-.6569319-.4365714-.9942012-1.2197942-.8599666-1.9970555.1342345-.7772614.7146608-1.4019963 1.4799666-1.5929445 7.38-1.86 11.1-4.57 12.84-6.34 1.2071589 4.2437873 1.493553 8.6965344.84 13.06z" fill="#f0c419"/><path id="Shape" d="m57.82 27.85c-.66.41-1.39.83-2.2 1.23.6531509-4.3634826.3667622-8.8161443-.84-13.06.6024747-.5493335 1.1005077-1.2032136 1.47-1.93 1.4427796 4.4345393 1.9767499 9.1144316 1.57 13.76z" fill="#f29c1f"/><path id="Shape" d="m17 23.05c-4.7686874.0013983-9.28844094 2.1288843-12.32832726 5.8030471-3.03988631 3.6741629-4.28332547 8.5123679-3.39167274 13.1969529h4.1c-1.25255674-4.8581597.64936931-9.9827665 4.7681444-12.8474317 4.118775-2.8646652 9.5849362-2.8646652 13.7037112 0 4.1187751 2.8646652 6.0207011 7.989272 4.7681444 12.8474317h4.1c.8916527-4.684585-.3517864-9.52279-3.3916727-13.1969529-3.0398864-3.6741628-7.5596399-5.8016488-12.3283273-5.8030471z" fill="#c03a2b"/><path id="Shape" d="m31.64 42.05h-25.28c-1.25802779-5.2339196.8397778-10.7017925 5.2757675-13.7511438 4.4359897-3.0493514 10.2924753-3.0493514 14.728465 0 4.4359897 3.0493513 6.5337953 8.5172242 5.2757675 13.7511438z" fill="#c03a2b"/><g fill="#7f6e5d"><path id="Shape" d="m19 36.053c-.5522847 0-1-.4477153-1-1v-8c0-.5522847.4477153-1 1-1s1 .4477153 1 1v8c0 .5522847-.4477153 1-1 1z"/><path id="Shape" d="m16.17 37.223c-.2651948-.0000566-.5195073-.1054506-.707-.293l-5.663-5.66c-.37897221-.3923789-.37355237-1.0160848.01218142-1.4018186.38573378-.3857338 1.00943968-.3911536 1.40181858-.0121814l5.66 5.66c.2855256.2856077.3712321.7149252.2172564 1.0882724-.1539756.3733472-.5174063.6174319-.9212564.6187276z"/><path id="Shape" d="m15 40.053h-8c-.55228475 0-1-.4477153-1-1s.44771525-1 1-1h8c.5522847 0 1 .4477153 1 1s-.4477153 1-1 1z"/><path id="Shape" d="m10.51 48.543c-.4043959-.0000863-.76893405-.2437275-.92367798-.6173454-.15474393-.373618-.06922994-.8036603.21667798-1.0896546l5.66-5.66c.2510745-.2599566.6228779-.3642126.9725073-.2726972.3496295.0915155.6226744.3645604.7141899.7141899.0915154.3496294-.0127406.7214328-.2726972.9725073l-5.66 5.66c-.1874927.1875494-.4418052.2929434-.707.293z"/><path id="Shape" d="m19 52.053c-.5522847 0-1-.4477153-1-1v-8c0-.5522847.4477153-1 1-1s1 .4477153 1 1v8c0 .5522847-.4477153 1-1 1z"/><path id="Shape" d="m27.49 48.543c-.2651948-.0000566-.5195073-.1054506-.707-.293l-5.66-5.66c-.2599566-.2510745-.3642126-.6228779-.2726972-.9725073.0915155-.3496295.3645604-.6226744.7141899-.7141899.3496294-.0915154.7214328.0127406.9725073.2726972l5.66 5.66c.2859079.2859943.3714219.7160366.216678 1.0896546-.1547439.3736179-.5192821.6172591-.923678.6173454z"/><path id="Shape" d="m31 40.053h-8c-.5522847 0-1-.4477153-1-1s.4477153-1 1-1h8c.5522847 0 1 .4477153 1 1s-.4477153 1-1 1z"/><path id="Shape" d="m21.83 37.223c-.4043959-.0000863-.7689341-.2437275-.923678-.6173454-.1547439-.373618-.0692299-.8036603.216678-1.0896546l5.66-5.66c.3904653-.3912937 1.0242063-.3919653 1.4155-.0015s.3919653 1.0242063.0015 1.4155l-5.66 5.66c-.1882272.1882861-.4437659.2937408-.71.293z"/></g><path id="Shape" d="m19 23.05c-8.836556 0-16 7.163444-16 16s7.163444 16 16 16 16-7.163444 16-16-7.163444-16-16-16zm0 28c-6.627417 0-12-5.372583-12-12s5.372583-12 12-12 12 5.372583 12 12c0 3.1825979-1.2642821 6.2348448-3.5147186 8.4852814-2.2504366 2.2504365-5.3026835 3.5147186-8.4852814 3.5147186z" fill="#cbb292"/><path id="Shape" d="m19 25.05c-7.7319865 0-14 6.2680135-14 14s6.2680135 14 14 14 14-6.2680135 14-14-6.2680135-14-14-14zm0 26c-6.627417 0-12-5.372583-12-12s5.372583-12 12-12 12 5.372583 12 12c0 3.1825979-1.2642821 6.2348448-3.5147186 8.4852814-2.2504366 2.2504365-5.3026835 3.5147186-8.4852814 3.5147186z" fill="#a59078"/><path id="Shape" d="m23 39.05c0 2.209139-1.790861 4-4 4s-4-1.790861-4-4 1.790861-4 4-4 4 1.790861 4 4z" fill="#f29c1f"/><path id="Shape" d="m22 38c-.0036123 1.5043979-.8510162 2.8795475-2.193201 3.5590813-1.3421847.6795338-2.9521429.5485204-4.166799-.3390813-.7909839-1.2310002-.8476846-2.795384-.1478935-4.0804169.699791-1.2850329 2.044676-2.0861545 3.5078935-2.0895831.8459515-.0039707 1.6704316.2661781 2.35.77.4249994.6475551.6509727 1.4054349.65 2.18z" fill="#f0c419"/><circle id="Oval" cx="18" cy="38" fill="#f3d55b" r="2"/></g></svg>