<svg id="Capa_1" enable-background="new 0 0 512 512" height="512" viewBox="0 0 512 512" width="512" xmlns="http://www.w3.org/2000/svg"><g><g><path d="m389.991 336.639-217.317-217.209c-1.344-1.343-1.85-3.321-1.283-5.134 13.942-44.645-9.562-92.793-53.989-108.958-30.455-11.077-63.042-4.34-86.341 14.901-3.319 2.741-2.361 8.071 1.685 9.543l60.796 22.124c2.094.762 3.536 2.696 3.669 4.92l1.989 33.266c.092 1.543-.459 3.056-1.522 4.179l-22.92 24.197c-1.532 1.617-3.878 2.171-5.971 1.409l-60.795-22.119c-4.044-1.471-8.203 1.993-7.424 6.226 5.466 29.711 26.092 55.821 56.555 66.906 18.87 6.862 38.559 6.879 56.347 1.328 1.815-.566 3.794-.066 5.139 1.279l217.3 217.193c1.352 1.351 1.852 3.342 1.274 5.163-9.751 30.718-2.446 65.677 21.931 90.041 35.309 35.291 92.863 34.802 127.563-1.477 33.922-35.465 32.993-90.818-2.041-125.186-24.348-23.885-59.003-30.988-89.484-21.321-1.82.579-3.81.08-5.161-1.271zm79.498 68.773.007 34.9c0 1.367-.543 2.678-1.51 3.644l-24.698 24.686c-.966.965-2.276 1.508-3.641 1.508h-34.931c-1.366 0-2.675-.542-3.641-1.508l-24.698-24.686c-.967-.966-1.51-2.277-1.51-3.643v-34.908c0-1.367.543-2.677 1.51-3.643l24.698-24.686c.966-.966 2.276-1.508 3.642-1.508l34.923.007c1.365 0 2.675.543 3.64 1.508l24.699 24.687c.966.966 1.509 2.276 1.51 3.642z" fill="#b5dbfd"/><g fill="#8dcafc"><path d="m308.178 331.028c5.511 5.511 5.511 14.443 0 19.955l-5.996 5.996-69.146-69.105 54.064-54.064 26.434 26.414-38.075 38.076z"/><path d="m485.245 485.885c-4.182 4.183-8.684 7.86-13.413 11.033 23.241-34.645 19.543-81.992-11.085-112.599-23.286-23.276-56.252-30.979-85.944-23.117-4.477 1.186-9.247-.012-12.523-3.286l-210.892-210.794c-3.255-3.254-4.469-7.989-3.31-12.444 11.306-43.455-12.099-89.175-55.167-104.844-20.233-7.356-41.403-6.861-60.163-.052-4.047-1.471-5.007-6.803-1.686-9.544 23.303-19.237 55.889-25.978 86.337-14.902 44.428 16.164 67.932 64.317 53.991 108.964-.566 1.813-.06 3.791 1.283 5.134l217.316 217.205c1.35 1.35 3.339 1.85 5.159 1.273 30.739-9.744 65.712-2.444 90.097 21.921 34.82 34.809 34.82 91.242 0 126.052z"/></g></g><g><g><g><path d="m214.645 323.775-26.422-26.422 214.859-214.858c2.012-2.012 5.273-2.012 7.284 0l19.137 19.137c2.012 2.012 2.012 5.273 0 7.284z" fill="#c0e2fc"/><path d="m412.913 125.507-26.422-26.422 16.591-16.591c2.012-2.012 5.273-2.012 7.284 0l19.137 19.137c2.012 2.012 2.012 5.273 0 7.284z" fill="#8dcafc"/></g><g><path d="m63.137 504.287c-5.058-5.058-5.058-13.259 0-18.317l2.012-2.012-37.109-37.108-2.012 2.012c-5.058 5.058-13.259 5.058-18.317 0-10.282-10.282-10.282-26.952 0-37.234l132.8-132.799c19.567-19.567 51.291-19.567 70.858 0l21.801 21.801c19.567 19.567 19.567 51.291 0 70.858l-132.8 132.8c-10.282 10.281-26.952 10.281-37.233-.001z" fill="#fc9744"/><path d="m65.148 483.958-37.108-37.108 131.468-131.468c10.247-10.247 26.861-10.247 37.108 0 10.247 10.247 10.247 26.861 0 37.108z" fill="#107295"/><path d="m196.615 352.495-131.462 131.463-19.036-19.036 131.463-131.462c5.12-5.12 7.689-11.84 7.689-18.561 0-2.16-.261-4.319-.801-6.404 4.459 1.108 8.676 3.407 12.157 6.888 5.12 5.12 7.679 11.831 7.679 18.552 0 6.72-2.569 13.441-7.689 18.56z" fill="#0d5f7f"/></g><g><path d="m264.058 339.818-91.878-91.878c-5.508-5.508-5.508-14.439 0-19.948l6.828-6.828c5.508-5.508 14.439-5.508 19.948 0l91.878 91.878c5.508 5.508 5.508 14.439 0 19.948l-6.828 6.828c-5.509 5.509-14.44 5.509-19.948 0z" fill="#fb8627"/><path d="m290.83 332.99-6.828 6.828c-5.511 5.511-14.437 5.501-19.939 0l-21.065-21.065c5.511 5.511 14.437 5.52 19.948.009l6.828-6.828c5.511-5.511 5.511-14.447 0-19.957l21.065 21.065c5.502 5.501 5.501 14.437-.009 19.948z" fill="#f2671f"/></g></g><path d="m510.295 27.706-26.003-26.003c-1.916-1.916-4.903-2.253-7.198-.811l-62.735 39.412c-1.359.854-2.304 2.231-2.611 3.806l-6.616 33.893c-.37 1.897.227 3.854 1.594 5.221l22.049 22.049c1.367 1.367 3.324 1.964 5.221 1.594l33.893-6.616c1.575-.307 2.952-1.253 3.806-2.611l39.412-62.735c1.441-2.296 1.104-5.283-.812-7.199z" fill="#eaf6ff"/><path d="m511.111 34.904-39.414 62.738c-.855 1.36-2.236 2.297-3.812 2.606l-33.893 6.624c-1.896.361-3.853-.237-5.213-1.597l-17.925-17.925c1.37 1.37 3.327 1.968 5.223 1.597l33.893-6.614c1.576-.309 2.946-1.257 3.801-2.617l39.414-62.738c1.442-2.287 1.102-5.274-.814-7.191l17.925 17.915c1.917 1.917 2.257 4.905.815 7.202z" fill="#d9ecfd"/></g></g></svg>