<svg id="Capa_1" enable-background="new 0 0 512 512" height="512" viewBox="0 0 512 512" width="512" xmlns="http://www.w3.org/2000/svg"><g><g><path d="m512 299.756c0 34.958-10.904 67.985-31.595 95.865v116.379l-68.038-63.222c-19.499 8.091-40.163 12.185-61.574 12.185l-36.872-157.44 36.872-164.974c88.89 0 161.207 72.317 161.207 161.207z" fill="#b9eafa"/><path d="m350.793 138.549v322.414c-88.89 0-161.207-72.317-161.207-161.207s72.317-161.207 161.207-161.207z" fill="#eef9ff"/></g><g><path d=""/></g><g><g><path d="m0 161.207c0 34.958 10.904 67.985 31.595 95.865v116.379l68.038-63.222c19.499 8.091 40.163 12.185 61.574 12.185l36.872-157.44-36.872-164.974c-88.89 0-161.207 72.317-161.207 161.207z" fill="#99f"/><path d="m161.207 0v322.414c88.89 0 161.207-72.317 161.207-161.207s-72.317-161.207-161.207-161.207z" fill="#8080ff"/></g><g><g><path d=""/></g><g><path d="m171.263 136.82c2.646-2.786 3.991-6.443 3.792-10.298-.368-7.083-6.448-12.961-13.554-13.104-.099-.002-.195.007-.294.007v27.72h.001c3.836.001 7.406-1.536 10.055-4.325z" fill="none"/><g fill="#ffe673"><path d="m146.208 141.146v45.184h14.999l7.507-21.356-7.507-23.828z"/><path d="m117.765 121.182c-.28 2.009-.422 4.061-.422 6.099h30c0-.657.045-1.314.135-1.953.953-6.834 6.84-11.903 13.729-11.902l10.5-15.174-10.5-14.825c-21.79-.002-40.417 16.079-43.442 37.755z"/><path d="m146.208 218.869c.364 8.127 6.59 15 14.999 15l4.812-15-4.812-15c-7.846.001-15.362 6.9-14.999 15z"/></g></g></g><g fill="#ffc31a"><path d="m176.208 168.481c6.324-2.308 12.11-6.055 16.811-11.005 8.366-8.812 12.626-20.356 11.995-32.509-1.185-22.834-20.032-41.083-42.908-41.544-.301-.006-.599.003-.898.003v29.999c.099 0 .195-.01.294-.007 7.105.144 13.186 6.021 13.554 13.104.199 3.854-1.146 7.512-3.792 10.298-2.648 2.789-6.219 4.325-10.055 4.325h-.001v45.185h15.001v-17.849z"/><path d="m161.208 233.869c7.846 0 15.363-6.899 15-15-.364-8.127-6.591-15-15-15h-.001v30z"/></g></g><g fill="#2453b3"><path d="m335.793 248.474c.364 8.127 6.59 15 15 15l7.5-15-7.5-15c-7.846 0-15.363 6.9-15 15z"/><path d="m335.792 290.909v82.542h15l7.5-41.271-7.5-41.271z"/></g><g fill="#142266"><path d="m365.793 248.474c-.364-8.127-6.591-15-15-15v30c7.846 0 15.363-6.899 15-15z"/><path d="m350.792 290.909h15v82.542h-15z"/></g></g></svg>